<svg xmlns="http://www.w3.org/2000/svg" fill="none" viewBox="-1.5 -1.5 48 48" height="48" width="48"><g id="empty-clipboard--work-plain-clipboard-task-list-company-office"><path id="Intersect" stroke="#000" stroke-linecap="round" stroke-linejoin="round" d="M27.294375000000002 2.8584375c1.640625 0.033749999999999995 2.878125 1.4812500000000002 2.685 3.110625l-0.21937500000000001 1.8599999999999999A2.8125 2.8125 0 0 1 26.9671875 10.3125h-8.934375a2.8125 2.8125 0 0 1 -2.79375 -2.4834375l-0.21937500000000001 -1.8599999999999999c-0.19218749999999998 -1.629375 1.0453125 -3.0768750000000002 2.6859375 -3.110625 1.425 -0.029062499999999998 3.0187500000000003 -0.0459375 4.7953125000000005 -0.0459375 1.775625 0 3.3675 0.016874999999999998 4.7934375000000005 0.0459375Z" stroke-width="3"></path><path id="Subtract" stroke="#000" stroke-linecap="round" stroke-linejoin="round" d="M15.001874999999998 5.7403125c-2.540625 0.08625 -4.4775 0.2090625 -5.9156249999999995 0.32999999999999996 -2.1553125 0.18281250000000002 -3.765 1.7774999999999999 -3.9487499999999995 3.9328125000000003C4.9125000000000005 12.6365625 4.6875 17.001562500000002 4.6875 23.90625c0 6.90375 0.22499999999999998 11.268749999999999 0.44999999999999996 13.903125 0.18375 2.1553125 1.7934375 3.75 3.9496875 3.931875C11.6990625 41.9625 15.961875 42.1875 22.5 42.1875s10.8009375 -0.22499999999999998 13.412812500000001 -0.44625c2.15625 -0.18281250000000002 3.7659375 -1.7765625 3.9496875 -3.931875 0.22499999999999998 -2.634375 0.44999999999999996 -6.999375000000001 0.44999999999999996 -13.903125 0 -6.9046875000000005 -0.22499999999999998 -11.2696875 -0.44999999999999996 -13.903125 -0.18375 -2.15625 -1.7934375 -3.75 -3.9496875 -3.9328125000000003 -1.4371874999999998 -0.12187500000000001 -3.375 -0.24375000000000002 -5.9156249999999995 -0.32999999999999996" stroke-width="3"></path></g></svg>