<svg xmlns="http://www.w3.org/2000/svg" fill="none" viewBox="0 0 48 48" height="48" width="48"><g id="empty-clipboard--work-plain-clipboard-task-list-company-office"><path id="Union" fill="#000" fill-rule="evenodd" d="M31.638 4.347c0.196 -1.73 -1.12 -3.265 -2.861 -3.3A231.64 231.64 0 0 0 24.001 1c-1.765 0 -3.353 0.017 -4.778 0.046 -1.742 0.036 -3.057 1.57 -2.861 3.301l0.224 1.99A3 3 0 0 0 19.567 9h8.866a3 3 0 0 0 2.98 -2.663l0.225 -1.99Zm2.981 0.337a6.02 6.02 0 0 0 0.033 -0.946c1.51 0.078 2.762 0.167 3.785 0.256 3.023 0.262 5.314 2.543 5.57 5.575 0.246 2.922 0.493 7.763 0.493 15.431 0 7.667 -0.247 12.509 -0.493 15.431 -0.256 3.032 -2.547 5.313 -5.57 5.576 -2.838 0.246 -7.43 0.493 -14.437 0.493 -7.008 0 -11.6 -0.247 -14.437 -0.493 -3.023 -0.263 -5.314 -2.544 -5.57 -5.576C3.747 37.51 3.5 32.667 3.5 25c0 -7.668 0.247 -12.509 0.493 -15.431 0.256 -3.032 2.547 -5.313 5.57 -5.575a106.02 106.02 0 0 1 3.785 -0.256 6.02 6.02 0 0 0 0.033 0.946l0.224 1.99A6 6 0 0 0 19.567 12h8.866a6 6 0 0 0 5.962 -5.327l0.224 -1.99Z" clip-rule="evenodd" stroke-width="1"></path></g></svg>