<svg xmlns="http://www.w3.org/2000/svg" fill="none" viewBox="0 0 48 48" height="48" width="48"><g id="file-search"><path id="Union" fill="#000" fill-rule="evenodd" d="M24.507 4.077c-0.008 -0.962 -0.008 -1.845 -0.006 -2.542C23.408 1.513 22.241 1.5 21 1.5c-6.315 0 -10.674 0.323 -13.418 0.637 -2.895 0.33 -5.094 2.531 -5.413 5.431C1.843 10.522 1.5 15.43 1.5 23s0.343 12.478 0.669 15.432c0.32 2.9 2.518 5.1 5.413 5.431 2.744 0.314 7.103 0.637 13.418 0.637 1.535 0 2.954 -0.02 4.262 -0.053A12.981 12.981 0 0 1 20 34c0 -7.18 5.82 -13 13 -13 2.793 0 5.38 0.88 7.5 2.38l0 -0.38c0 -2.018 -0.025 -3.847 -0.066 -5.5 -0.704 0 -1.593 -0.002 -2.56 -0.012 -2.271 -0.023 -5.043 -0.088 -6.867 -0.263 -3.333 -0.32 -5.925 -2.976 -6.246 -6.325 -0.175 -1.825 -0.235 -4.575 -0.254 -6.823Zm3.24 6.537c-0.16 -1.679 -0.221 -4.308 -0.24 -6.562 -0.006 -0.744 -0.008 -1.44 -0.007 -2.039 1.459 0.639 3.95 2.07 7.153 5.21 3.4 3.333 4.839 5.883 5.432 7.277 -0.63 0 -1.378 -0.004 -2.18 -0.012 -2.279 -0.023 -4.932 -0.088 -6.612 -0.25 -1.862 -0.178 -3.358 -1.666 -3.545 -3.624Zm14.138 27.98A9.958 9.958 0 0 0 43 34c0 -5.523 -4.477 -10 -10 -10s-10 4.477 -10 10 4.477 10 10 10c1.69 0 3.281 -0.42 4.677 -1.159 0.93 1.121 1.854 2.226 2.873 3.318 1.081 1.157 2.718 1.3 3.863 0.206a31.861 31.861 0 0 0 1.017 -1.018c1.095 -1.144 0.952 -2.78 -0.206 -3.862 -1.098 -1.026 -2.21 -1.955 -3.34 -2.891ZM33 29.5a4.5 4.5 0 1 0 0 9 4.5 4.5 0 0 0 0 -9Z" clip-rule="evenodd" stroke-width="1"></path></g></svg>