<svg xmlns="http://www.w3.org/2000/svg" fill="none" viewBox="-1.5 -1.5 48 48" height="48" width="48"><g id="file-search"><path id="Subtract" fill-rule="evenodd" stroke="#000" stroke-linecap="round" stroke-linejoin="round" d="M39.375 30a9.335625 9.335625 0 0 1 -1.0453125 4.306875000000001c1.0574999999999999 0.8775000000000001 2.1 1.7484375 3.1303125 2.709375 1.0856249999999998 1.014375 1.2196875 2.5490625 0.193125 3.6215625a30.284062499999997 30.284062499999997 0 0 1 -0.9534374999999999 0.954375c-1.0734375 1.0265625 -2.6081250000000002 0.8915624999999999 -3.6215625 -0.193125 -0.95625 -1.0237500000000002 -1.8215625 -2.0596875 -2.6934375000000004 -3.110625A9.334687500000001 9.334687500000001 0 0 1 30 39.375c-5.1778125 0 -9.375 -4.1971875 -9.375 -9.375s4.1971875 -9.375 9.375 -9.375 9.375 4.1971875 9.375 9.375Zm-9.375 3.75a3.75 3.75 0 1 0 0 -7.5 3.75 3.75 0 0 0 0 7.5Z" clip-rule="evenodd" stroke-width="3"></path><path id="Subtract_2" stroke="#000" stroke-linecap="round" stroke-linejoin="round" d="M19.6875 40.3125c-5.8725000000000005 0 -9.905625 -0.3 -12.42 -0.5878125 -2.0634375 -0.23625000000000002 -3.609375 -1.7840625 -3.8362499999999997 -3.8484375C3.1312499999999996 33.166875 2.8125 28.619062500000002 2.8125 21.5625c0 -7.0565625 0.3196875 -11.604375000000001 0.61875 -14.31375 0.226875 -2.064375 1.7718749999999999 -3.61125 3.8362499999999997 -3.8484375C9.781875 3.1134375000000003 13.815000000000001 2.8125 19.6875 2.8125c1.7493750000000001 0 3.335625 0.02625 4.766249999999999 0.07125 0.796875 0.249375 3.3553125 1.2693750000000001 7.05 4.891875 3.4865625 3.418125 4.6096875 5.843437499999999 4.93875 6.7621875000000005 0.0375 1.006875 0.06749999999999999 2.0971875 0.088125 3.2746874999999998" stroke-width="3"></path><path id="Intersect" stroke="#000" stroke-linecap="round" stroke-linejoin="round" d="M36.455625000000005 14.960625c-1.9565625000000002 0.2915625 -5.475937500000001 0.06749999999999999 -8.146875 -0.1790625a4.3725 4.3725 0 0 1 -3.9646875 -3.9478125000000004c-0.25125000000000003 -2.626875 -0.474375 -6.061875000000001 -0.16874999999999998 -7.9575" stroke-width="3"></path></g></svg>