<svg xmlns="http://www.w3.org/2000/svg" fill="none" viewBox="0 0 48 48" height="48" width="48"><g id="heart--reward-social-rating-media-heart-it-like-favorite-love"><path id="Union" fill="#000000" fill-rule="evenodd" d="M47.14285714285714 16.940571428571428c-0.07885714285714285 -5.424 -3.1542857142857144 -10.765714285714285 -7.8754285714285714 -12.966857142857142a10.967999999999998 10.967999999999998 0 0 0 -8.09142857142857 -0.4765714285714286c-2.417142857142857 0.768 -4.841142857142857 2.3417142857142856 -7.175999999999999 4.817142857142857 -2.334857142857143 -2.475428571428571 -4.758857142857142 -4.045714285714285 -7.175999999999999 -4.817142857142857a10.967999999999998 10.967999999999998 0 0 0 -8.09142857142857 0.4765714285714286C4.011428571428571 6.174857142857142 0.936 11.516571428571428 0.8571428571428571 16.940571428571428v0.027428571428571427c0 7.909714285714285 4.704 14.917714285714284 9.689142857142857 19.837714285714284a42.26057142857143 42.26057142857143 0 0 0 7.484571428571428 5.917714285714285c1.1588571428571428 0.7028571428571427 2.2525714285714287 1.2685714285714285 3.2228571428571424 1.6662857142857141 0.9291428571428572 0.3771428571428571 1.8960000000000001 0.6651428571428571 2.7462857142857144 0.6651428571428571s1.8171428571428572 -0.288 2.742857142857143 -0.6651428571428571c0.9737142857142855 -0.3942857142857143 2.067428571428571 -0.9600000000000001 3.2228571428571424 -1.6662857142857141a42.26742857142857 42.26742857142857 0 0 0 7.488 -5.917714285714285C42.43885714285714 31.885714285714286 47.14285714285714 24.877714285714283 47.14285714285714 16.97142857142857l0 -0.027428571428571427Z" clip-rule="evenodd" stroke-width="3.4285714285714284"></path></g></svg>