<svg xmlns="http://www.w3.org/2000/svg" fill="none" viewBox="0 0 48 48" height="48" width="48"><g id="home-1--home-house-roof-shelter"><path id="Subtract" fill="#000" fill-rule="evenodd" d="M20.568 2.812a8.246 8.246 0 0 1 6.864 0c7.765 3.556 13.551 8.642 16.337 11.386 1.502 1.479 2.305 3.451 2.418 5.486 0.138 2.507 0.313 6.573 0.313 11.159 0 3.236 -0.087 6.212 -0.187 8.564a7.145 7.145 0 0 1 -6.927 6.854c-3.478 0.12 -8.647 0.239 -15.386 0.239 -6.74 0 -11.908 -0.12 -15.386 -0.239a7.145 7.145 0 0 1 -6.927 -6.854 204.11 204.11 0 0 1 -0.187 -8.564c0 -4.586 0.175 -8.652 0.313 -11.159 0.113 -2.035 0.916 -4.007 2.418 -5.486 2.786 -2.744 8.572 -7.83 16.337 -11.386ZM16 36a2 2 0 1 0 0 4h16a2 2 0 1 0 0 -4H16Z" clip-rule="evenodd" stroke-width="1"></path></g></svg>