<svg xmlns="http://www.w3.org/2000/svg" fill="none" viewBox="-1.5 -1.5 48 48" height="48" width="48"><g id="home-1--home-house-roof-shelter"><path id="Vector 705" stroke="#000" stroke-linecap="round" stroke-linejoin="round" d="M25.1390625 3.9000000000000004c6.7828125 3.0103125 11.9240625 6.965624999999999 14.581875 9.250312500000001 1.3434375 1.155 2.0925000000000002 2.8171874999999997 2.184375 4.586250000000001C42.03375 20.165625000000002 42.1875 23.9671875 42.1875 28.125c0 3.19875 -0.0909375 6.286875 -0.19124999999999998 8.712187499999999a5.3325 5.3325 0 0 1 -5.1674999999999995 5.128125c-3.24375 0.11249999999999999 -8.0578125 0.22218749999999998 -14.328750000000001 0.22218749999999998s-11.0840625 -0.110625 -14.328750000000001 -0.22125a5.3325 5.3325 0 0 1 -5.1674999999999995 -5.128125A215.18062500000002 215.18062500000002 0 0 1 2.8125 28.125c0 -4.1578124999999995 0.1546875 -7.9593750000000005 0.28125 -10.3884375 0.09375 -1.7690625 0.841875 -3.4312500000000004 2.1853124999999998 -4.586250000000001 2.6578125 -2.285625 7.800000000000001 -6.239999999999999 14.581875 -9.250312500000001a6.5071875 6.5071875 0 0 1 5.278125 0Z" stroke-width="3"></path><path id="Vector 1068" stroke="#000" stroke-linecap="round" stroke-linejoin="round" d="m15 35.625 15 0" stroke-width="3"></path></g></svg>