<svg xmlns="http://www.w3.org/2000/svg" fill="none" viewBox="-1.5 -1.5 48 48" height="48" width="48"><g id="horizontal-menu-circle--navigation-dots-three-circle-button-horizontal-menu"><path id="Ellipse 19" stroke="#000" stroke-linecap="round" stroke-linejoin="round" d="M2.8125 22.5a19.6875 19.6875 0 1 0 39.375 0 19.6875 19.6875 0 1 0 -39.375 0" stroke-width="3"></path><path id="Ellipse 541" stroke="#000" stroke-linecap="round" stroke-linejoin="round" d="M19.21875 22.5a3.28125 3.28125 0 1 0 6.5625 0 3.28125 3.28125 0 1 0 -6.5625 0" stroke-width="3"></path><path id="Ellipse 543" stroke="#000" stroke-linecap="round" stroke-linejoin="round" d="M7.96875 22.5a3.28125 3.28125 0 1 0 6.5625 0 3.28125 3.28125 0 1 0 -6.5625 0" stroke-width="3"></path><path id="Ellipse 542" stroke="#000" stroke-linecap="round" stroke-linejoin="round" d="M30.46875 22.5a3.28125 3.28125 0 1 0 6.5625 0 3.28125 3.28125 0 1 0 -6.5625 0" stroke-width="3"></path></g></svg>