<svg xmlns="http://www.w3.org/2000/svg" fill="none" viewBox="-1.5 -1.5 48 48" height="48" width="48"><g id="search-visual"><path id="Vector" stroke="#000" stroke-linecap="round" stroke-linejoin="round" d="M12.1875 2.8125s-2.893125 0 -5.95875 0.1809375a3.4312500000000004 3.4312500000000004 0 0 0 -3.234375 3.234375C2.8125 9.2934375 2.8125 12.1875 2.8125 12.1875M32.8125 2.8125s2.893125 0 5.95875 0.1809375a3.4312500000000004 3.4312500000000004 0 0 1 3.234375 3.234375C42.1875 9.2934375 42.1875 12.1875 42.1875 12.1875M32.8125 42.1875s2.893125 0 5.95875 -0.1809375a3.4312500000000004 3.4312500000000004 0 0 0 3.234375 -3.234375C42.1875 35.706562500000004 42.1875 32.8125 42.1875 32.8125M12.1875 42.1875s-2.893125 0 -5.95875 -0.1809375a3.4312500000000004 3.4312500000000004 0 0 1 -3.234375 -3.234375C2.8125 35.706562500000004 2.8125 32.8125 2.8125 32.8125" stroke-width="3"></path><path id="Union" stroke="#000" stroke-linecap="round" stroke-linejoin="round" d="M31.096875 26.864062500000003A12.1303125 12.1303125 0 0 0 32.8125 20.625c0 -6.731249999999999 -5.456250000000001 -12.1875 -12.1875 -12.1875S8.4375 13.89375 8.4375 20.625s5.456250000000001 12.1875 12.1875 12.1875a12.13125 12.13125 0 0 0 6.3159375 -1.7625l0.0515625 0.061875c1.03125 1.245 2.0475000000000003 2.4703125 3.1846875 3.6778125 1.0181250000000002 1.081875 2.55375 1.2196875 3.63375 0.1996875a31.168125000000003 31.168125000000003 0 0 0 1.2421875 -1.2421875c1.02 -1.0790625 0.88125 -2.615625 -0.1996875 -3.63375 -1.2084374999999998 -1.1371875 -2.43375 -2.1525 -3.6778125 -3.18375l-0.07875 -0.065625Z" stroke-width="3"></path><path id="Ellipse 17" stroke="#000" stroke-linecap="round" stroke-linejoin="round" d="M15 20.625a5.625 5.625 0 1 0 11.25 0 5.625 5.625 0 1 0 -11.25 0" stroke-width="3"></path></g></svg>