<svg xmlns="http://www.w3.org/2000/svg" fill="none" viewBox="0 0 48 48" height="48" width="48"><g id="star-1--reward-rating-rate-social-star-media-favorite-like-stars"><path id="Union" fill="#000000" fill-rule="evenodd" d="M29.938285714285712 5.722285714285714c-2.1805714285714286 -5.2457142857142856 -9.36 -4.933714285714285 -11.45142857142857 0.12685714285714284 -0.9634285714285715 2.328 -1.782857142857143 4.676571428571429 -2.6537142857142855 7.532571428571428 -3.2228571428571424 -0.04457142857142857 -5.873142857142857 0.027428571428571427 -8.537142857142857 0.2742857142857143 -5.451428571428571 0.5039999999999999 -7.765714285714286 7.241142857142857 -3.4148571428571426 10.817142857142857a59.48228571428571 59.48228571428571 0 0 0 6.4799999999999995 4.580571428571429l0 0.02057142857142857a73.17942857142857 73.17942857142857 0 0 0 -2.537142857142857 9.305142857142856c-1.0697142857142856 5.376 4.73142857142857 9.572571428571427 9.452571428571428 6.500571428571428a55.22742857142857 55.22742857142857 0 0 0 6.795428571428571 -5.269714285714286c2.434285714285714 2.2354285714285713 4.570285714285714 3.9325714285714284 6.905142857142856 5.444571428571429 4.755428571428571 3.075428571428571 10.395428571428571 -1.2445714285714284 9.342857142857143 -6.531428571428571a81.80914285714286 81.80914285714286 0 0 0 -2.5165714285714285 -9.46285714285714A61.158857142857144 61.158857142857144 0 0 0 44.091428571428565 24.617142857142856c4.436571428571429 -3.610285714285714 2.0125714285714285 -10.409142857142857 -3.4628571428571426 -10.902857142857142a87.41485714285713 87.41485714285713 0 0 0 -8.204571428571427 -0.3154285714285714 53.732571428571426 53.732571428571426 0 0 0 -2.482285714285714 -7.680000000000001Z" clip-rule="evenodd" stroke-width="3.4285714285714284"></path></g></svg>