<svg xmlns="http://www.w3.org/2000/svg" fill="none" viewBox="0 0 48 48" height="48" width="48"><g id="user-podcast--human-person-share-signal-transmit-user"><path id="Union" fill="#000" fill-rule="evenodd" d="M8.826 24.06C8.826 15.596 15.65 8.79 24 8.79s15.174 6.806 15.174 15.27c0 2.511 -0.6 4.873 -1.661 6.955 -0.437 0.857 -0.56 1.876 0.05 2.62 0.664 0.81 1.793 1.796 3.583 2.316 1.066 0.309 2.165 -0.255 2.689 -1.234A22.523 22.523 0 0 0 46.5 24.06C46.5 11.63 36.457 1.5 24 1.5S1.5 11.631 1.5 24.06c0 3.848 0.964 7.48 2.665 10.657 0.524 0.98 1.622 1.543 2.689 1.233 1.79 -0.519 2.919 -1.505 3.583 -2.316 0.61 -0.743 0.487 -1.762 0.05 -2.619a15.267 15.267 0 0 1 -1.661 -6.955Zm24.595 -0.054a9.416 9.416 0 0 1 -4.622 8.11c4.249 1.762 7.442 5.797 8.28 10.713 0.279 1.63 -0.647 2.965 -2.286 3.184 -1.885 0.252 -5.153 0.487 -10.791 0.487 -5.639 0 -8.907 -0.235 -10.792 -0.487 -1.639 -0.22 -2.565 -1.553 -2.287 -3.184 0.84 -4.916 4.032 -8.95 8.28 -10.713A9.421 9.421 0 0 1 24 14.586a9.421 9.421 0 0 1 9.42 9.42Z" clip-rule="evenodd" stroke-width="1"></path></g></svg>