<svg xmlns="http://www.w3.org/2000/svg" fill="none" viewBox="-1.5 -1.5 48 48" height="48" width="48"><g id="user-podcast--human-person-share-signal-transmit-user"><path id="Union" stroke="#000" stroke-linecap="round" stroke-linejoin="round" d="M26.43 29.8265625a7.5 7.5 0 1 0 -7.859062499999999 0c-3.6046875000000003 1.4578125 -6.334687499999999 4.86 -7.1025 9.03 -0.2784375 1.5140625 0.5878125 2.7496875 2.1159375000000002 2.941875 1.62375 0.204375 4.3528125 0.3890625 8.9165625 0.3890625 4.563750000000001 0 7.29375 -0.1846875 8.9175 -0.3890625 1.5271875 -0.19218749999999998 2.3934375 -1.4278125 2.1149999999999998 -2.941875 -0.7678125 -4.1709375 -3.4978124999999998 -7.5740625 -7.1034375 -9.03Z" stroke-width="3"></path><path id="Ellipse 172 (Stroke) (Stroke)" fill-rule="evenodd" stroke="#000" stroke-linecap="round" stroke-linejoin="round" d="M2.8125 22.5703125C2.8125 12.075000000000001 11.73 3.75 22.5 3.75s19.6875 8.325000000000001 19.6875 18.8203125c0 2.788125 -0.6375000000000001 5.4403125 -1.7774999999999999 7.8225 -0.6665625 1.395 -2.4281249999999996 1.725 -3.7125 0.8653125l-0.7959375 -0.5325c-1.0799999999999998 -0.72375 -1.340625 -2.184375 -0.825 -3.3778125a12.028125 12.028125 0 0 0 0.9862500000000001 -4.7775c0 -6.8925 -5.925000000000001 -12.740625 -13.5628125 -12.740625 -7.63875 0 -13.5628125 5.8481250000000005 -13.5628125 12.740625 0 1.685625 0.34875 3.2981249999999998 0.9871874999999999 4.7775 0.5146875000000001 1.194375 0.2540625 2.653125 -0.8259375 3.3778125l-0.796875 0.5325c-1.284375 0.8606250000000001 -3.0450000000000004 0.5296875 -3.7125 -0.8653125A18.076875 18.076875 0 0 1 2.8125 22.5703125Z" clip-rule="evenodd" stroke-width="3"></path></g></svg>